<mxfile host="app.diagrams.net" agent="Mozilla/5.0 (Windows NT 10.0; Win64; x64) AppleWebKit/537.36 (KHTML, like Gecko) Chrome/137.0.0.0 Safari/537.36" version="27.1.4">
  <diagram name="Page-1" id="zzbiPKPIbLXBf6gnwjWf">
    <mxGraphModel dx="784" dy="776" grid="1" gridSize="10" guides="1" tooltips="1" connect="1" arrows="1" fold="1" page="1" pageScale="1" pageWidth="850" pageHeight="1100" math="0" shadow="0">
      <root>
        <mxCell id="0" />
        <mxCell id="1" parent="0" />
        <mxCell id="y3fGufqXvh_hego8Wact-1" value="" style="rounded=0;whiteSpace=wrap;html=1;strokeColor=#A50040;fillColor=light-dark(#d80073, #ffffff);fontColor=#ffffff;" vertex="1" parent="1">
          <mxGeometry y="160" width="760" height="440" as="geometry" />
        </mxCell>
        <mxCell id="y3fGufqXvh_hego8Wact-2" value="&lt;font style=&quot;font-size: 34px; color: light-dark(rgb(0, 0, 0), rgb(0, 0, 0));&quot;&gt;&lt;b&gt;STATE DIAGARM&lt;/b&gt;&lt;/font&gt;" style="text;html=1;align=center;verticalAlign=middle;resizable=0;points=[];autosize=1;strokeColor=none;fillColor=none;" vertex="1" parent="1">
          <mxGeometry x="230" y="540" width="300" height="50" as="geometry" />
        </mxCell>
        <mxCell id="y3fGufqXvh_hego8Wact-3" value="&lt;font style=&quot;color: light-dark(rgb(0, 0, 0), rgb(0, 0, 0)); font-size: 23px;&quot;&gt;IN STOCK&lt;/font&gt;" style="rounded=1;whiteSpace=wrap;html=1;fillColor=light-dark(#FFFFFF,#FAFAFA);strokeColor=light-dark(#000000,#000000);strokeWidth=4;" vertex="1" parent="1">
          <mxGeometry x="300" y="210" width="160" height="40" as="geometry" />
        </mxCell>
        <mxCell id="y3fGufqXvh_hego8Wact-5" value="&lt;font style=&quot;color: light-dark(rgb(0, 0, 0), rgb(0, 0, 0)); font-size: 23px;&quot;&gt;AVAILABLE&amp;nbsp;&lt;/font&gt;&lt;div&gt;&lt;font style=&quot;color: light-dark(rgb(0, 0, 0), rgb(0, 0, 0)); font-size: 23px;&quot;&gt;ON LOAD&lt;/font&gt;&lt;/div&gt;" style="rounded=1;whiteSpace=wrap;html=1;fillColor=light-dark(#FFFFFF,#FAFAFA);strokeColor=light-dark(#000000,#000000);strokeWidth=4;" vertex="1" parent="1">
          <mxGeometry x="170" y="330" width="160" height="60" as="geometry" />
        </mxCell>
        <mxCell id="y3fGufqXvh_hego8Wact-7" value="&lt;font style=&quot;color: light-dark(rgb(0, 0, 0), rgb(0, 0, 0));&quot;&gt;&lt;span style=&quot;font-size: 23px;&quot;&gt;CHACKED OUT&lt;/span&gt;&lt;/font&gt;" style="rounded=1;whiteSpace=wrap;html=1;fillColor=light-dark(#FFFFFF,#FAFAFA);strokeColor=light-dark(#000000,#000000);strokeWidth=4;" vertex="1" parent="1">
          <mxGeometry x="425" y="330" width="160" height="60" as="geometry" />
        </mxCell>
        <mxCell id="y3fGufqXvh_hego8Wact-17" style="edgeStyle=orthogonalEdgeStyle;rounded=0;orthogonalLoop=1;jettySize=auto;html=1;exitX=0.5;exitY=1;exitDx=0;exitDy=0;" edge="1" parent="1" source="y3fGufqXvh_hego8Wact-8" target="y3fGufqXvh_hego8Wact-1">
          <mxGeometry relative="1" as="geometry" />
        </mxCell>
        <mxCell id="y3fGufqXvh_hego8Wact-8" value="&lt;font style=&quot;color: light-dark(rgb(0, 0, 0), rgb(0, 0, 0));&quot;&gt;&lt;span style=&quot;font-size: 23px;&quot;&gt;LOST&lt;/span&gt;&lt;/font&gt;" style="rounded=1;whiteSpace=wrap;html=1;fillColor=light-dark(#FFFFFF,#FAFAFA);strokeColor=light-dark(#000000,#000000);strokeWidth=4;" vertex="1" parent="1">
          <mxGeometry x="300" y="440" width="160" height="60" as="geometry" />
        </mxCell>
        <mxCell id="y3fGufqXvh_hego8Wact-10" value="" style="endArrow=classic;html=1;rounded=0;strokeColor=light-dark(#6F0000, #ff0000);exitX=0;exitY=0.5;exitDx=0;exitDy=0;fillColor=#a20025;entryX=0;entryY=0.5;entryDx=0;entryDy=0;strokeWidth=3;" edge="1" parent="1" source="y3fGufqXvh_hego8Wact-3" target="y3fGufqXvh_hego8Wact-16">
          <mxGeometry width="50" height="50" relative="1" as="geometry">
            <mxPoint x="350" y="420" as="sourcePoint" />
            <mxPoint x="290" y="480" as="targetPoint" />
            <Array as="points">
              <mxPoint x="110" y="230" />
              <mxPoint x="110" y="530" />
              <mxPoint x="230" y="530" />
              <mxPoint x="330" y="530" />
            </Array>
          </mxGeometry>
        </mxCell>
        <mxCell id="y3fGufqXvh_hego8Wact-12" value="" style="endArrow=classic;html=1;rounded=0;strokeColor=light-dark(#000000,#FF0000);entryX=0;entryY=0.5;entryDx=0;entryDy=0;exitX=1;exitY=0.5;exitDx=0;exitDy=0;strokeWidth=3;" edge="1" parent="1" source="y3fGufqXvh_hego8Wact-5" target="y3fGufqXvh_hego8Wact-7">
          <mxGeometry width="50" height="50" relative="1" as="geometry">
            <mxPoint x="350" y="420" as="sourcePoint" />
            <mxPoint x="400" y="370" as="targetPoint" />
          </mxGeometry>
        </mxCell>
        <mxCell id="y3fGufqXvh_hego8Wact-13" value="" style="endArrow=classic;html=1;rounded=0;strokeColor=light-dark(#000000,#FF3333);entryX=1;entryY=0.5;entryDx=0;entryDy=0;exitX=1;exitY=0.5;exitDx=0;exitDy=0;strokeWidth=3;" edge="1" parent="1" source="y3fGufqXvh_hego8Wact-7" target="y3fGufqXvh_hego8Wact-3">
          <mxGeometry width="50" height="50" relative="1" as="geometry">
            <mxPoint x="350" y="420" as="sourcePoint" />
            <mxPoint x="400" y="370" as="targetPoint" />
            <Array as="points">
              <mxPoint x="630" y="360" />
              <mxPoint x="630" y="230" />
            </Array>
          </mxGeometry>
        </mxCell>
        <mxCell id="y3fGufqXvh_hego8Wact-14" value="" style="endArrow=classic;html=1;rounded=0;strokeColor=light-dark(#000000,#FF0000);entryX=0.75;entryY=0;entryDx=0;entryDy=0;strokeWidth=3;" edge="1" parent="1" target="y3fGufqXvh_hego8Wact-7">
          <mxGeometry width="50" height="50" relative="1" as="geometry">
            <mxPoint x="450" y="330" as="sourcePoint" />
            <mxPoint x="400" y="370" as="targetPoint" />
            <Array as="points">
              <mxPoint x="450" y="300" />
              <mxPoint x="545" y="300" />
              <mxPoint x="545" y="310" />
            </Array>
          </mxGeometry>
        </mxCell>
        <mxCell id="y3fGufqXvh_hego8Wact-15" value="" style="endArrow=classic;html=1;rounded=0;strokeColor=light-dark(#000000,#FF0000);entryX=0.881;entryY=0.033;entryDx=0;entryDy=0;entryPerimeter=0;exitX=0.094;exitY=1.017;exitDx=0;exitDy=0;exitPerimeter=0;strokeWidth=3;" edge="1" parent="1" source="y3fGufqXvh_hego8Wact-7" target="y3fGufqXvh_hego8Wact-8">
          <mxGeometry width="50" height="50" relative="1" as="geometry">
            <mxPoint x="441" y="400" as="sourcePoint" />
            <mxPoint x="400" y="370" as="targetPoint" />
          </mxGeometry>
        </mxCell>
        <mxCell id="y3fGufqXvh_hego8Wact-16" value="" style="ellipse;html=1;shape=endState;fillColor=light-dark(#000000,#FF0000);strokeColor=light-dark(#FF0000,#FF0000);" vertex="1" parent="1">
          <mxGeometry x="370" y="520" width="20" height="20" as="geometry" />
        </mxCell>
        <mxCell id="y3fGufqXvh_hego8Wact-18" value="" style="endArrow=classic;html=1;rounded=0;strokeColor=light-dark(#000000,#FF0000);entryX=0.5;entryY=0;entryDx=0;entryDy=0;exitX=0.5;exitY=1;exitDx=0;exitDy=0;strokeWidth=3;" edge="1" parent="1" source="y3fGufqXvh_hego8Wact-8" target="y3fGufqXvh_hego8Wact-16">
          <mxGeometry width="50" height="50" relative="1" as="geometry">
            <mxPoint x="350" y="420" as="sourcePoint" />
            <mxPoint x="400" y="370" as="targetPoint" />
          </mxGeometry>
        </mxCell>
        <mxCell id="y3fGufqXvh_hego8Wact-20" value="" style="edgeStyle=orthogonalEdgeStyle;rounded=0;orthogonalLoop=1;jettySize=auto;html=1;" edge="1" parent="1" source="y3fGufqXvh_hego8Wact-19" target="y3fGufqXvh_hego8Wact-3">
          <mxGeometry relative="1" as="geometry" />
        </mxCell>
        <mxCell id="y3fGufqXvh_hego8Wact-19" value="" style="ellipse;whiteSpace=wrap;html=1;aspect=fixed;fillColor=light-dark(#FFFFFF,#FF0000);" vertex="1" parent="1">
          <mxGeometry x="370" y="170" width="20" height="20" as="geometry" />
        </mxCell>
        <mxCell id="y3fGufqXvh_hego8Wact-21" value="" style="endArrow=classic;html=1;rounded=0;strokeColor=light-dark(#000000,#FF0000);exitX=0.5;exitY=1;exitDx=0;exitDy=0;" edge="1" parent="1" source="y3fGufqXvh_hego8Wact-19">
          <mxGeometry width="50" height="50" relative="1" as="geometry">
            <mxPoint x="350" y="420" as="sourcePoint" />
            <mxPoint x="380" y="210" as="targetPoint" />
          </mxGeometry>
        </mxCell>
        <mxCell id="y3fGufqXvh_hego8Wact-27" value="" style="edgeStyle=orthogonalEdgeStyle;rounded=0;orthogonalLoop=1;jettySize=auto;html=1;strokeWidth=3;" edge="1" parent="1" source="y3fGufqXvh_hego8Wact-22" target="y3fGufqXvh_hego8Wact-8">
          <mxGeometry relative="1" as="geometry" />
        </mxCell>
        <mxCell id="y3fGufqXvh_hego8Wact-22" value="&lt;font style=&quot;color: light-dark(rgb(0, 0, 0), rgb(0, 0, 0));&quot;&gt;LEND&lt;/font&gt;" style="text;html=1;align=center;verticalAlign=middle;resizable=0;points=[];autosize=1;strokeColor=none;fillColor=none;" vertex="1" parent="1">
          <mxGeometry x="340" y="330" width="60" height="30" as="geometry" />
        </mxCell>
        <mxCell id="y3fGufqXvh_hego8Wact-23" value="&lt;font style=&quot;font-size: 15px; color: light-dark(rgb(0, 0, 0), rgb(0, 0, 0));&quot;&gt;ADMONISH&lt;/font&gt;" style="text;html=1;align=center;verticalAlign=middle;resizable=0;points=[];autosize=1;strokeColor=none;fillColor=none;" vertex="1" parent="1">
          <mxGeometry x="445" y="270" width="100" height="30" as="geometry" />
        </mxCell>
        <mxCell id="y3fGufqXvh_hego8Wact-25" value="&lt;font style=&quot;font-size: 15px; color: light-dark(rgb(0, 0, 0), rgb(0, 0, 0));&quot;&gt;CHECK IN&lt;/font&gt;" style="text;html=1;align=center;verticalAlign=middle;resizable=0;points=[];autosize=1;strokeColor=none;fillColor=none;" vertex="1" parent="1">
          <mxGeometry x="630" y="270" width="100" height="30" as="geometry" />
        </mxCell>
        <mxCell id="y3fGufqXvh_hego8Wact-26" value="&lt;font style=&quot;font-size: 15px; color: light-dark(rgb(0, 0, 0), rgb(0, 0, 0));&quot;&gt;WRITE OFF&lt;/font&gt;" style="text;html=1;align=center;verticalAlign=middle;resizable=0;points=[];autosize=1;strokeColor=none;fillColor=none;" vertex="1" parent="1">
          <mxGeometry x="440" y="400" width="110" height="30" as="geometry" />
        </mxCell>
      </root>
    </mxGraphModel>
  </diagram>
</mxfile>
